<mxfile host="app.diagrams.net" modified="2023-05-18T15:38:10.595Z" agent="Mozilla/5.0 (Windows NT 10.0; Win64; x64) AppleWebKit/537.36 (KHTML, like Gecko) Chrome/113.0.0.0 Safari/537.36 Edg/113.0.1774.42" etag="MbdSeNHiNiHBNxQrNFr7" version="21.3.2" type="github" pages="3">
  <diagram id="PwLwHjakhoCrr4Ee3QQ_" name="Page-1">
    <mxGraphModel dx="1379" dy="763" grid="0" gridSize="10" guides="1" tooltips="1" connect="1" arrows="1" fold="1" page="1" pageScale="1" pageWidth="827" pageHeight="1169" math="0" shadow="0">
      <root>
        <mxCell id="0" />
        <mxCell id="1" parent="0" />
        <mxCell id="meLC3V-GeyEF6vAqej8P-1" value="" style="whiteSpace=wrap;html=1;aspect=fixed;" parent="1" vertex="1">
          <mxGeometry x="164" y="192" width="481" height="481" as="geometry" />
        </mxCell>
        <mxCell id="meLC3V-GeyEF6vAqej8P-17" style="edgeStyle=orthogonalEdgeStyle;rounded=0;orthogonalLoop=1;jettySize=auto;html=1;exitX=0.5;exitY=0.5;exitDx=0;exitDy=0;exitPerimeter=0;" parent="1" source="meLC3V-GeyEF6vAqej8P-2" target="meLC3V-GeyEF6vAqej8P-8" edge="1">
          <mxGeometry relative="1" as="geometry" />
        </mxCell>
        <mxCell id="meLC3V-GeyEF6vAqej8P-29" style="edgeStyle=orthogonalEdgeStyle;rounded=0;orthogonalLoop=1;jettySize=auto;html=1;exitX=0.5;exitY=0.5;exitDx=0;exitDy=0;exitPerimeter=0;entryX=0;entryY=0.5;entryDx=0;entryDy=0;fontSize=14;" parent="1" source="meLC3V-GeyEF6vAqej8P-2" target="meLC3V-GeyEF6vAqej8P-27" edge="1">
          <mxGeometry relative="1" as="geometry" />
        </mxCell>
        <object label="访客" 访客="" id="meLC3V-GeyEF6vAqej8P-2">
          <mxCell style="shape=umlActor;verticalLabelPosition=bottom;verticalAlign=top;html=1;outlineConnect=0;noLabel=0;fillOpacity=100;strokeOpacity=100;metaEdit=0;" parent="1" vertex="1">
            <mxGeometry x="79" y="255" width="27" height="60" as="geometry" />
          </mxCell>
        </object>
        <mxCell id="meLC3V-GeyEF6vAqej8P-18" style="edgeStyle=orthogonalEdgeStyle;rounded=0;orthogonalLoop=1;jettySize=auto;html=1;exitX=0.5;exitY=0.5;exitDx=0;exitDy=0;exitPerimeter=0;" parent="1" source="meLC3V-GeyEF6vAqej8P-4" target="meLC3V-GeyEF6vAqej8P-9" edge="1">
          <mxGeometry relative="1" as="geometry" />
        </mxCell>
        <mxCell id="meLC3V-GeyEF6vAqej8P-30" style="edgeStyle=orthogonalEdgeStyle;rounded=0;orthogonalLoop=1;jettySize=auto;html=1;exitX=0.5;exitY=0.5;exitDx=0;exitDy=0;exitPerimeter=0;entryX=0;entryY=0.5;entryDx=0;entryDy=0;fontSize=14;" parent="1" source="meLC3V-GeyEF6vAqej8P-4" target="meLC3V-GeyEF6vAqej8P-27" edge="1">
          <mxGeometry relative="1" as="geometry" />
        </mxCell>
        <mxCell id="meLC3V-GeyEF6vAqej8P-4" value="用户" style="shape=umlActor;verticalLabelPosition=bottom;verticalAlign=top;html=1;outlineConnect=0;" parent="1" vertex="1">
          <mxGeometry x="79" y="457" width="30" height="60" as="geometry" />
        </mxCell>
        <mxCell id="meLC3V-GeyEF6vAqej8P-15" style="edgeStyle=orthogonalEdgeStyle;rounded=0;orthogonalLoop=1;jettySize=auto;html=1;exitX=0.5;exitY=0.5;exitDx=0;exitDy=0;exitPerimeter=0;" parent="1" source="meLC3V-GeyEF6vAqej8P-6" target="meLC3V-GeyEF6vAqej8P-14" edge="1">
          <mxGeometry relative="1" as="geometry" />
        </mxCell>
        <mxCell id="meLC3V-GeyEF6vAqej8P-6" value="管理员" style="shape=umlActor;verticalLabelPosition=bottom;verticalAlign=top;html=1;outlineConnect=0;" parent="1" vertex="1">
          <mxGeometry x="719" y="315" width="30" height="60" as="geometry" />
        </mxCell>
        <mxCell id="meLC3V-GeyEF6vAqej8P-8" value="注册" style="ellipse;whiteSpace=wrap;html=1;" parent="1" vertex="1">
          <mxGeometry x="239.5" y="204" width="120" height="80" as="geometry" />
        </mxCell>
        <mxCell id="meLC3V-GeyEF6vAqej8P-9" value="登录" style="ellipse;whiteSpace=wrap;html=1;" parent="1" vertex="1">
          <mxGeometry x="250" y="400" width="120" height="80" as="geometry" />
        </mxCell>
        <mxCell id="meLC3V-GeyEF6vAqej8P-10" value="发布博客" style="ellipse;whiteSpace=wrap;html=1;" parent="1" vertex="1">
          <mxGeometry x="359.5" y="561" width="120" height="80" as="geometry" />
        </mxCell>
        <mxCell id="meLC3V-GeyEF6vAqej8P-11" value="修改博客" style="ellipse;whiteSpace=wrap;html=1;" parent="1" vertex="1">
          <mxGeometry x="203" y="563" width="120" height="80" as="geometry" />
        </mxCell>
        <mxCell id="meLC3V-GeyEF6vAqej8P-14" value="修改文章权限" style="ellipse;whiteSpace=wrap;html=1;" parent="1" vertex="1">
          <mxGeometry x="490" y="429" width="120" height="80" as="geometry" />
        </mxCell>
        <mxCell id="meLC3V-GeyEF6vAqej8P-22" value="" style="endArrow=block;dashed=1;endFill=0;endSize=12;html=1;rounded=0;exitX=0.5;exitY=0;exitDx=0;exitDy=0;" parent="1" source="meLC3V-GeyEF6vAqej8P-10" target="meLC3V-GeyEF6vAqej8P-9" edge="1">
          <mxGeometry width="160" relative="1" as="geometry">
            <mxPoint x="378" y="404" as="sourcePoint" />
            <mxPoint x="538" y="404" as="targetPoint" />
            <Array as="points" />
          </mxGeometry>
        </mxCell>
        <mxCell id="meLC3V-GeyEF6vAqej8P-23" value="&amp;lt;&amp;lt;extened&amp;gt;&amp;gt;" style="text;html=1;align=center;verticalAlign=middle;resizable=0;points=[];autosize=1;strokeColor=none;fillColor=none;" parent="1" vertex="1">
          <mxGeometry x="379" y="491" width="81" height="18" as="geometry" />
        </mxCell>
        <mxCell id="meLC3V-GeyEF6vAqej8P-24" value="" style="endArrow=block;dashed=1;endFill=0;endSize=12;html=1;rounded=0;entryX=0.722;entryY=0.947;entryDx=0;entryDy=0;entryPerimeter=0;" parent="1" source="meLC3V-GeyEF6vAqej8P-11" target="meLC3V-GeyEF6vAqej8P-9" edge="1">
          <mxGeometry width="160" relative="1" as="geometry">
            <mxPoint x="198" y="576" as="sourcePoint" />
            <mxPoint x="358" y="576" as="targetPoint" />
          </mxGeometry>
        </mxCell>
        <mxCell id="meLC3V-GeyEF6vAqej8P-25" value="&amp;lt;&amp;lt;extened&amp;gt;&amp;gt;" style="text;html=1;align=center;verticalAlign=middle;resizable=0;points=[];autosize=1;strokeColor=none;fillColor=none;" parent="1" vertex="1">
          <mxGeometry x="236" y="517" width="81" height="18" as="geometry" />
        </mxCell>
        <mxCell id="meLC3V-GeyEF6vAqej8P-26" value="&lt;font style=&quot;font-size: 14px&quot;&gt;博客管理系统&lt;/font&gt;" style="text;html=1;align=center;verticalAlign=middle;resizable=0;points=[];autosize=1;strokeColor=none;fillColor=none;" parent="1" vertex="1">
          <mxGeometry x="366" y="173" width="94" height="19" as="geometry" />
        </mxCell>
        <mxCell id="meLC3V-GeyEF6vAqej8P-27" value="查看博文" style="ellipse;whiteSpace=wrap;html=1;fontSize=14;" parent="1" vertex="1">
          <mxGeometry x="246" y="302" width="120" height="80" as="geometry" />
        </mxCell>
        <mxCell id="meLC3V-GeyEF6vAqej8P-32" value="" style="endArrow=block;dashed=1;endFill=0;endSize=12;html=1;rounded=0;fontSize=14;exitX=0;exitY=0.5;exitDx=0;exitDy=0;entryX=1;entryY=0.5;entryDx=0;entryDy=0;" parent="1" source="meLC3V-GeyEF6vAqej8P-14" target="meLC3V-GeyEF6vAqej8P-9" edge="1">
          <mxGeometry width="160" relative="1" as="geometry">
            <mxPoint x="390" y="386" as="sourcePoint" />
            <mxPoint x="550" y="386" as="targetPoint" />
          </mxGeometry>
        </mxCell>
        <mxCell id="meLC3V-GeyEF6vAqej8P-33" value="&amp;lt;&amp;lt;include&amp;gt;&amp;gt;" style="text;html=1;align=center;verticalAlign=middle;resizable=0;points=[];autosize=1;strokeColor=none;fillColor=none;fontSize=14;" parent="1" vertex="1">
          <mxGeometry x="403" y="429" width="87" height="21" as="geometry" />
        </mxCell>
      </root>
    </mxGraphModel>
  </diagram>
  <diagram id="X5vDv4KN6AwmheBJj9g-" name="第 2 页">
    <mxGraphModel dx="1379" dy="797" grid="0" gridSize="10" guides="1" tooltips="1" connect="1" arrows="1" fold="1" page="1" pageScale="1" pageWidth="827" pageHeight="1169" math="0" shadow="0">
      <root>
        <mxCell id="0" />
        <mxCell id="1" parent="0" />
        <mxCell id="9qwk92FP0K843KwAOMED-1" value="&lt;p style=&quot;margin:0px;margin-top:4px;text-align:center;&quot;&gt;&lt;b&gt;IndexController&lt;/b&gt;&lt;br&gt;&lt;/p&gt;&lt;hr size=&quot;1&quot;&gt;&lt;p style=&quot;margin:0px;margin-left:4px;&quot;&gt;+ articleService:&amp;nbsp;ArticleService&lt;/p&gt;&lt;hr size=&quot;1&quot;&gt;&lt;p style=&quot;margin:0px;margin-left:4px;&quot;&gt;+ articleList(): PageInfo&amp;lt;Article&amp;gt;&lt;/p&gt;&lt;p style=&quot;margin:0px;margin-left:4px;&quot;&gt;+&amp;nbsp;qryById(id : String) : String&amp;nbsp;&lt;/p&gt;" style="verticalAlign=top;align=left;overflow=fill;fontSize=12;fontFamily=Helvetica;html=1;whiteSpace=wrap;" vertex="1" parent="1">
          <mxGeometry x="192" y="252" width="198" height="90" as="geometry" />
        </mxCell>
        <mxCell id="9qwk92FP0K843KwAOMED-2" value="&lt;p style=&quot;margin:0px;margin-top:4px;text-align:center;&quot;&gt;&lt;b&gt;ArticleController&lt;/b&gt;&lt;br&gt;&lt;/p&gt;&lt;hr size=&quot;1&quot;&gt;&lt;p style=&quot;margin:0px;margin-left:4px;&quot;&gt;- uploadImage: String&lt;/p&gt;&lt;p style=&quot;margin:0px;margin-left:4px;&quot;&gt;- imagePath: String&lt;/p&gt;&lt;p style=&quot;margin:0px;margin-left:4px;&quot;&gt;- articleService: ArticalService&lt;/p&gt;&lt;p style=&quot;margin:0px;margin-left:4px;&quot;&gt;- classificationService: Classification Service&lt;/p&gt;&lt;hr size=&quot;1&quot;&gt;&lt;p style=&quot;margin:0px;margin-left:4px;&quot;&gt;&lt;span style=&quot;background-color: initial;&quot;&gt;+ list(search: String) : String&lt;/span&gt;&lt;br&gt;&lt;/p&gt;&lt;p style=&quot;margin:0px;margin-left:4px;&quot;&gt;&lt;span style=&quot;background-color: initial;&quot;&gt;+ qryById(id: String): String&lt;/span&gt;&lt;/p&gt;&lt;p style=&quot;margin:0px;margin-left:4px;&quot;&gt;+ del(id: String): String&lt;/p&gt;&lt;p style=&quot;margin:0px;margin-left:4px;&quot;&gt;+ edit(id: String): String&lt;/p&gt;&lt;p style=&quot;margin:0px;margin-left:4px;&quot;&gt;+ editSubmit(id: String): String&amp;nbsp;&lt;/p&gt;" style="verticalAlign=top;align=left;overflow=fill;fontSize=12;fontFamily=Helvetica;html=1;whiteSpace=wrap;" vertex="1" parent="1">
          <mxGeometry x="435" y="249" width="269" height="175" as="geometry" />
        </mxCell>
        <mxCell id="9qwk92FP0K843KwAOMED-3" value="&lt;p style=&quot;margin:0px;margin-top:4px;text-align:center;&quot;&gt;&lt;b&gt;UserController&lt;/b&gt;&lt;br&gt;&lt;/p&gt;&lt;hr size=&quot;1&quot;&gt;&lt;p style=&quot;margin:0px;margin-left:4px;&quot;&gt;-&amp;nbsp; userservice: UserService&lt;/p&gt;&lt;hr size=&quot;1&quot;&gt;&lt;p style=&quot;margin:0px;margin-left:4px;&quot;&gt;&lt;span style=&quot;background-color: initial;&quot;&gt;+ login() : String&lt;/span&gt;&lt;/p&gt;&lt;p style=&quot;margin:0px;margin-left:4px;&quot;&gt;&lt;span style=&quot;background-color: initial;&quot;&gt;+ register(): String&lt;/span&gt;&lt;/p&gt;&lt;p style=&quot;margin:0px;margin-left:4px;&quot;&gt;&lt;span style=&quot;background-color: initial;&quot;&gt;+ loginSub(user: User): String&lt;/span&gt;&lt;/p&gt;&lt;p style=&quot;margin:0px;margin-left:4px;&quot;&gt;&lt;span style=&quot;background-color: initial;&quot;&gt;+ registerSub(user: User): String&amp;nbsp;&lt;/span&gt;&lt;br&gt;&lt;/p&gt;" style="verticalAlign=top;align=left;overflow=fill;fontSize=12;fontFamily=Helvetica;html=1;whiteSpace=wrap;" vertex="1" parent="1">
          <mxGeometry x="757" y="249" width="269" height="143" as="geometry" />
        </mxCell>
        <mxCell id="9qwk92FP0K843KwAOMED-5" value="&lt;p style=&quot;margin:0px;margin-top:4px;text-align:center;&quot;&gt;&lt;b&gt;&amp;lt;&amp;lt;interface&amp;gt;&amp;gt;&lt;/b&gt;&lt;/p&gt;&lt;p style=&quot;margin:0px;margin-top:4px;text-align:center;&quot;&gt;&lt;b&gt;UserService&lt;/b&gt;&lt;br&gt;&lt;/p&gt;&lt;hr size=&quot;1&quot;&gt;&lt;p style=&quot;margin:0px;margin-left:4px;&quot;&gt;- userMapper: UserMapper:&amp;nbsp;&lt;/p&gt;&lt;hr size=&quot;1&quot;&gt;&lt;p style=&quot;margin:0px;margin-left:4px;&quot;&gt;+ list(search: String): String&lt;/p&gt;&lt;p style=&quot;margin:0px;margin-left:4px;&quot;&gt;+ login(username: String): String&lt;/p&gt;&lt;p style=&quot;margin:0px;margin-left:4px;&quot;&gt;+ qryByUserId(id: Integer): User&lt;/p&gt;&lt;p style=&quot;margin:0px;margin-left:4px;&quot;&gt;+ save(User user): int&lt;/p&gt;&lt;p style=&quot;margin:0px;margin-left:4px;&quot;&gt;&lt;br&gt;&lt;/p&gt;" style="verticalAlign=top;align=left;overflow=fill;fontSize=12;fontFamily=Helvetica;html=1;whiteSpace=wrap;" vertex="1" parent="1">
          <mxGeometry x="787.5" y="573" width="208" height="137" as="geometry" />
        </mxCell>
        <mxCell id="9qwk92FP0K843KwAOMED-6" value="&lt;p style=&quot;margin:0px;margin-top:4px;text-align:center;&quot;&gt;&lt;b&gt;&amp;lt;&amp;lt;interface&amp;gt;&amp;gt;&lt;/b&gt;&lt;/p&gt;&lt;p style=&quot;margin:0px;margin-top:4px;text-align:center;&quot;&gt;&lt;b&gt;ArticleService&lt;/b&gt;&lt;br&gt;&lt;/p&gt;&lt;hr size=&quot;1&quot;&gt;&lt;p style=&quot;margin:0px;margin-left:4px;&quot;&gt;- articleMapper: ArticleMapper&amp;nbsp;&lt;/p&gt;&lt;hr size=&quot;1&quot;&gt;&lt;p style=&quot;margin:0px;margin-left:4px;&quot;&gt;+ list(search: String): String&lt;/p&gt;&lt;p style=&quot;margin:0px;margin-left:4px;&quot;&gt;+ qryById(id: String): User&lt;/p&gt;&lt;p style=&quot;margin:0px;margin-left:4px;&quot;&gt;+ save(article: Article): int&lt;/p&gt;&lt;p style=&quot;margin:0px;margin-left:4px;&quot;&gt;&lt;br&gt;&lt;/p&gt;" style="verticalAlign=top;align=left;overflow=fill;fontSize=12;fontFamily=Helvetica;html=1;whiteSpace=wrap;" vertex="1" parent="1">
          <mxGeometry x="179" y="581" width="208" height="137" as="geometry" />
        </mxCell>
        <mxCell id="9qwk92FP0K843KwAOMED-7" value="&lt;p style=&quot;margin:0px;margin-top:4px;text-align:center;&quot;&gt;&lt;b&gt;&amp;lt;&amp;lt;interface&amp;gt;&amp;gt;&lt;/b&gt;&lt;/p&gt;&lt;p style=&quot;margin:0px;margin-top:4px;text-align:center;&quot;&gt;&lt;b&gt;ClassificationService&lt;/b&gt;&lt;br&gt;&lt;/p&gt;&lt;hr size=&quot;1&quot;&gt;&lt;p style=&quot;margin:0px;margin-left:4px;&quot;&gt;- classificationMapper:&amp;nbsp;ClassificationMapper&lt;/p&gt;&lt;hr size=&quot;1&quot;&gt;&lt;p style=&quot;margin:0px;margin-left:4px;&quot;&gt;+ list(search: String): String&lt;/p&gt;&lt;p style=&quot;margin:0px;margin-left:4px;&quot;&gt;+ qryById(id: String): User&lt;/p&gt;&lt;p style=&quot;margin:0px;margin-left:4px;&quot;&gt;+ save(article: Article): int&lt;/p&gt;&lt;p style=&quot;margin:0px;margin-left:4px;&quot;&gt;&lt;br&gt;&lt;/p&gt;" style="verticalAlign=top;align=left;overflow=fill;fontSize=12;fontFamily=Helvetica;html=1;whiteSpace=wrap;" vertex="1" parent="1">
          <mxGeometry x="419" y="585" width="244" height="137" as="geometry" />
        </mxCell>
        <mxCell id="9qwk92FP0K843KwAOMED-8" value="Use" style="endArrow=open;endSize=12;dashed=1;html=1;rounded=0;exitX=0.479;exitY=1.033;exitDx=0;exitDy=0;exitPerimeter=0;" edge="1" parent="1" source="9qwk92FP0K843KwAOMED-1" target="9qwk92FP0K843KwAOMED-6">
          <mxGeometry width="160" relative="1" as="geometry">
            <mxPoint x="222" y="496" as="sourcePoint" />
            <mxPoint x="382" y="496" as="targetPoint" />
          </mxGeometry>
        </mxCell>
        <mxCell id="9qwk92FP0K843KwAOMED-9" value="Use" style="endArrow=open;endSize=12;dashed=1;html=1;rounded=0;exitX=0.544;exitY=1.017;exitDx=0;exitDy=0;exitPerimeter=0;" edge="1" parent="1" source="9qwk92FP0K843KwAOMED-2">
          <mxGeometry width="160" relative="1" as="geometry">
            <mxPoint x="590" y="483" as="sourcePoint" />
            <mxPoint x="286" y="584" as="targetPoint" />
          </mxGeometry>
        </mxCell>
        <mxCell id="9qwk92FP0K843KwAOMED-10" value="Use" style="endArrow=open;endSize=12;dashed=1;html=1;rounded=0;entryX=0.475;entryY=-0.001;entryDx=0;entryDy=0;entryPerimeter=0;" edge="1" parent="1" target="9qwk92FP0K843KwAOMED-7">
          <mxGeometry width="160" relative="1" as="geometry">
            <mxPoint x="581" y="425" as="sourcePoint" />
            <mxPoint x="1005" y="459" as="targetPoint" />
          </mxGeometry>
        </mxCell>
        <mxCell id="9qwk92FP0K843KwAOMED-11" value="Use" style="endArrow=open;endSize=12;dashed=1;html=1;rounded=0;exitX=0.5;exitY=1;exitDx=0;exitDy=0;" edge="1" parent="1" source="9qwk92FP0K843KwAOMED-3" target="9qwk92FP0K843KwAOMED-5">
          <mxGeometry width="160" relative="1" as="geometry">
            <mxPoint x="888" y="455" as="sourcePoint" />
            <mxPoint x="1048" y="455" as="targetPoint" />
          </mxGeometry>
        </mxCell>
        <mxCell id="9qwk92FP0K843KwAOMED-12" value="&lt;p style=&quot;margin:0px;margin-top:4px;text-align:center;&quot;&gt;&lt;b style=&quot;background-color: initial;&quot;&gt;ArticleServiceImpl&lt;/b&gt;&lt;br&gt;&lt;/p&gt;&lt;hr size=&quot;1&quot;&gt;&lt;p style=&quot;margin:0px;margin-left:4px;&quot;&gt;- articleMapper: ArticleMapper&amp;nbsp;&lt;/p&gt;&lt;hr size=&quot;1&quot;&gt;&lt;p style=&quot;margin:0px;margin-left:4px;&quot;&gt;+ list(search: String): String&lt;/p&gt;&lt;p style=&quot;margin:0px;margin-left:4px;&quot;&gt;+ qryById(id: String): User&lt;/p&gt;&lt;p style=&quot;margin:0px;margin-left:4px;&quot;&gt;+ save(article: Article): int&lt;/p&gt;&lt;p style=&quot;margin:0px;margin-left:4px;&quot;&gt;&lt;br&gt;&lt;/p&gt;" style="verticalAlign=top;align=left;overflow=fill;fontSize=12;fontFamily=Helvetica;html=1;whiteSpace=wrap;" vertex="1" parent="1">
          <mxGeometry x="179" y="815" width="208" height="137" as="geometry" />
        </mxCell>
        <mxCell id="9qwk92FP0K843KwAOMED-13" value="&lt;p style=&quot;margin:0px;margin-top:4px;text-align:center;&quot;&gt;&lt;b style=&quot;background-color: initial;&quot;&gt;ClassificationServiceImpl&lt;/b&gt;&lt;br&gt;&lt;/p&gt;&lt;hr size=&quot;1&quot;&gt;&lt;p style=&quot;margin:0px;margin-left:4px;&quot;&gt;- classificationMapper:&amp;nbsp;ClassificationMapper&lt;/p&gt;&lt;hr size=&quot;1&quot;&gt;&lt;p style=&quot;margin:0px;margin-left:4px;&quot;&gt;+ list(search: String): String&lt;/p&gt;&lt;p style=&quot;margin:0px;margin-left:4px;&quot;&gt;+ qryById(id: String): User&lt;/p&gt;&lt;p style=&quot;margin:0px;margin-left:4px;&quot;&gt;+ save(article: Article): int&lt;/p&gt;&lt;p style=&quot;margin:0px;margin-left:4px;&quot;&gt;&lt;br&gt;&lt;/p&gt;" style="verticalAlign=top;align=left;overflow=fill;fontSize=12;fontFamily=Helvetica;html=1;whiteSpace=wrap;" vertex="1" parent="1">
          <mxGeometry x="419" y="820" width="244" height="137" as="geometry" />
        </mxCell>
        <mxCell id="9qwk92FP0K843KwAOMED-14" value="&lt;p style=&quot;margin:0px;margin-top:4px;text-align:center;&quot;&gt;&lt;b style=&quot;background-color: initial;&quot;&gt;UserServiceImpl&lt;/b&gt;&lt;br&gt;&lt;/p&gt;&lt;hr size=&quot;1&quot;&gt;&lt;p style=&quot;margin:0px;margin-left:4px;&quot;&gt;- userMapper: UserMapper:&amp;nbsp;&lt;/p&gt;&lt;hr size=&quot;1&quot;&gt;&lt;p style=&quot;margin:0px;margin-left:4px;&quot;&gt;+ list(search: String): String&lt;/p&gt;&lt;p style=&quot;margin:0px;margin-left:4px;&quot;&gt;+ login(username: String): String&lt;/p&gt;&lt;p style=&quot;margin:0px;margin-left:4px;&quot;&gt;+ qryByUserId(id: Integer): User&lt;/p&gt;&lt;p style=&quot;margin:0px;margin-left:4px;&quot;&gt;+ save(User user): int&lt;/p&gt;&lt;p style=&quot;margin:0px;margin-left:4px;&quot;&gt;&lt;br&gt;&lt;/p&gt;" style="verticalAlign=top;align=left;overflow=fill;fontSize=12;fontFamily=Helvetica;html=1;whiteSpace=wrap;" vertex="1" parent="1">
          <mxGeometry x="787.5" y="826" width="208" height="137" as="geometry" />
        </mxCell>
        <mxCell id="9qwk92FP0K843KwAOMED-15" value="" style="endArrow=block;dashed=1;endFill=0;endSize=12;html=1;rounded=0;entryX=0.5;entryY=1;entryDx=0;entryDy=0;exitX=0.5;exitY=0;exitDx=0;exitDy=0;" edge="1" parent="1" source="9qwk92FP0K843KwAOMED-12" target="9qwk92FP0K843KwAOMED-6">
          <mxGeometry width="160" relative="1" as="geometry">
            <mxPoint x="213" y="772" as="sourcePoint" />
            <mxPoint x="373" y="772" as="targetPoint" />
          </mxGeometry>
        </mxCell>
        <mxCell id="9qwk92FP0K843KwAOMED-16" value="" style="endArrow=block;dashed=1;endFill=0;endSize=12;html=1;rounded=0;" edge="1" parent="1" source="9qwk92FP0K843KwAOMED-13">
          <mxGeometry width="160" relative="1" as="geometry">
            <mxPoint x="541" y="660" as="sourcePoint" />
            <mxPoint x="541" y="722" as="targetPoint" />
          </mxGeometry>
        </mxCell>
        <mxCell id="9qwk92FP0K843KwAOMED-18" value="" style="endArrow=block;dashed=1;endFill=0;endSize=12;html=1;rounded=0;exitX=0.5;exitY=0;exitDx=0;exitDy=0;entryX=0.5;entryY=1;entryDx=0;entryDy=0;" edge="1" parent="1" source="9qwk92FP0K843KwAOMED-14" target="9qwk92FP0K843KwAOMED-5">
          <mxGeometry width="160" relative="1" as="geometry">
            <mxPoint x="872" y="785" as="sourcePoint" />
            <mxPoint x="1032" y="785" as="targetPoint" />
          </mxGeometry>
        </mxCell>
      </root>
    </mxGraphModel>
  </diagram>
  <diagram id="I6XSllqlJzbg7OVhJrfR" name="第 3 页">
    <mxGraphModel dx="1379" dy="797" grid="0" gridSize="10" guides="1" tooltips="1" connect="1" arrows="1" fold="1" page="1" pageScale="1" pageWidth="827" pageHeight="1169" math="0" shadow="0">
      <root>
        <mxCell id="0" />
        <mxCell id="1" parent="0" />
        <mxCell id="6hfL-zMeESmWzbewmXy1-3" value="" style="line;strokeWidth=2;direction=south;html=1;" vertex="1" parent="1">
          <mxGeometry x="274" y="192" width="10" height="592" as="geometry" />
        </mxCell>
        <mxCell id="6hfL-zMeESmWzbewmXy1-5" value="" style="line;strokeWidth=4;html=1;perimeter=backbonePerimeter;points=[];outlineConnect=0;" vertex="1" parent="1">
          <mxGeometry x="18" y="187" width="773" height="10" as="geometry" />
        </mxCell>
        <mxCell id="6hfL-zMeESmWzbewmXy1-6" value="" style="line;strokeWidth=2;direction=south;html=1;" vertex="1" parent="1">
          <mxGeometry x="528" y="192" width="10" height="600" as="geometry" />
        </mxCell>
        <mxCell id="6hfL-zMeESmWzbewmXy1-7" value="&lt;font style=&quot;font-size: 26px;&quot;&gt;用户&lt;/font&gt;" style="text;html=1;align=center;verticalAlign=middle;resizable=0;points=[];autosize=1;strokeColor=none;fillColor=none;" vertex="1" parent="1">
          <mxGeometry x="91" y="135" width="70" height="43" as="geometry" />
        </mxCell>
        <mxCell id="6hfL-zMeESmWzbewmXy1-8" value="&lt;span style=&quot;font-size: 26px;&quot;&gt;博客管理系统&lt;/span&gt;" style="text;html=1;align=center;verticalAlign=middle;resizable=0;points=[];autosize=1;strokeColor=none;fillColor=none;" vertex="1" parent="1">
          <mxGeometry x="317.5" y="135" width="174" height="43" as="geometry" />
        </mxCell>
        <mxCell id="6hfL-zMeESmWzbewmXy1-10" value="&lt;span style=&quot;font-size: 26px;&quot;&gt;数据库&lt;/span&gt;" style="text;html=1;align=center;verticalAlign=middle;resizable=0;points=[];autosize=1;strokeColor=none;fillColor=none;" vertex="1" parent="1">
          <mxGeometry x="611" y="135" width="96" height="43" as="geometry" />
        </mxCell>
        <mxCell id="6hfL-zMeESmWzbewmXy1-12" value="" style="ellipse;html=1;shape=startState;fillColor=#000000;strokeColor=#ff0000;" vertex="1" parent="1">
          <mxGeometry x="112" y="229" width="30" height="30" as="geometry" />
        </mxCell>
        <mxCell id="6hfL-zMeESmWzbewmXy1-13" value="" style="edgeStyle=orthogonalEdgeStyle;html=1;verticalAlign=bottom;endArrow=open;endSize=8;strokeColor=#ff0000;rounded=0;" edge="1" source="6hfL-zMeESmWzbewmXy1-12" parent="1">
          <mxGeometry relative="1" as="geometry">
            <mxPoint x="127" y="319" as="targetPoint" />
          </mxGeometry>
        </mxCell>
        <mxCell id="6hfL-zMeESmWzbewmXy1-17" style="edgeStyle=orthogonalEdgeStyle;rounded=0;orthogonalLoop=1;jettySize=auto;html=1;entryX=0;entryY=0.5;entryDx=0;entryDy=0;" edge="1" parent="1" source="6hfL-zMeESmWzbewmXy1-14" target="6hfL-zMeESmWzbewmXy1-16">
          <mxGeometry relative="1" as="geometry" />
        </mxCell>
        <mxCell id="6hfL-zMeESmWzbewmXy1-14" value="&lt;font style=&quot;font-size: 17px;&quot;&gt;登录&lt;/font&gt;" style="rounded=1;whiteSpace=wrap;html=1;" vertex="1" parent="1">
          <mxGeometry x="72.5" y="316" width="107" height="49" as="geometry" />
        </mxCell>
        <mxCell id="6hfL-zMeESmWzbewmXy1-20" style="edgeStyle=orthogonalEdgeStyle;rounded=0;orthogonalLoop=1;jettySize=auto;html=1;exitX=1;exitY=0.5;exitDx=0;exitDy=0;entryX=0;entryY=0.5;entryDx=0;entryDy=0;" edge="1" parent="1" source="6hfL-zMeESmWzbewmXy1-16" target="6hfL-zMeESmWzbewmXy1-19">
          <mxGeometry relative="1" as="geometry" />
        </mxCell>
        <mxCell id="6hfL-zMeESmWzbewmXy1-16" value="&lt;span style=&quot;font-size: 17px;&quot;&gt;检查合法性&lt;/span&gt;" style="rounded=1;whiteSpace=wrap;html=1;" vertex="1" parent="1">
          <mxGeometry x="352" y="316" width="107" height="49" as="geometry" />
        </mxCell>
        <mxCell id="6hfL-zMeESmWzbewmXy1-31" style="edgeStyle=orthogonalEdgeStyle;rounded=0;orthogonalLoop=1;jettySize=auto;html=1;exitX=0.5;exitY=1;exitDx=0;exitDy=0;entryX=1;entryY=0.5;entryDx=0;entryDy=0;" edge="1" parent="1" source="6hfL-zMeESmWzbewmXy1-19" target="6hfL-zMeESmWzbewmXy1-21">
          <mxGeometry relative="1" as="geometry" />
        </mxCell>
        <mxCell id="6hfL-zMeESmWzbewmXy1-19" value="&lt;span style=&quot;font-size: 17px;&quot;&gt;查询用户表&lt;/span&gt;" style="rounded=1;whiteSpace=wrap;html=1;" vertex="1" parent="1">
          <mxGeometry x="606.5" y="316" width="107" height="47" as="geometry" />
        </mxCell>
        <mxCell id="6hfL-zMeESmWzbewmXy1-32" style="edgeStyle=orthogonalEdgeStyle;rounded=0;orthogonalLoop=1;jettySize=auto;html=1;entryX=1;entryY=0.5;entryDx=0;entryDy=0;" edge="1" parent="1" source="6hfL-zMeESmWzbewmXy1-21" target="6hfL-zMeESmWzbewmXy1-22">
          <mxGeometry relative="1" as="geometry">
            <mxPoint x="195.6470588235295" y="441.5" as="targetPoint" />
          </mxGeometry>
        </mxCell>
        <mxCell id="6hfL-zMeESmWzbewmXy1-21" value="&lt;span style=&quot;font-size: 17px;&quot;&gt;加载该用户的博客列表&lt;/span&gt;" style="rounded=1;whiteSpace=wrap;html=1;" vertex="1" parent="1">
          <mxGeometry x="352" y="417" width="107" height="49" as="geometry" />
        </mxCell>
        <mxCell id="6hfL-zMeESmWzbewmXy1-27" style="edgeStyle=orthogonalEdgeStyle;rounded=0;orthogonalLoop=1;jettySize=auto;html=1;exitX=0.5;exitY=1;exitDx=0;exitDy=0;entryX=0.5;entryY=0;entryDx=0;entryDy=0;" edge="1" parent="1" source="6hfL-zMeESmWzbewmXy1-22" target="6hfL-zMeESmWzbewmXy1-24">
          <mxGeometry relative="1" as="geometry" />
        </mxCell>
        <mxCell id="6hfL-zMeESmWzbewmXy1-28" style="edgeStyle=orthogonalEdgeStyle;rounded=0;orthogonalLoop=1;jettySize=auto;html=1;exitX=0;exitY=0.5;exitDx=0;exitDy=0;entryX=0;entryY=0.5;entryDx=0;entryDy=0;" edge="1" parent="1" source="6hfL-zMeESmWzbewmXy1-22" target="6hfL-zMeESmWzbewmXy1-25">
          <mxGeometry relative="1" as="geometry">
            <mxPoint x="37" y="635" as="targetPoint" />
          </mxGeometry>
        </mxCell>
        <mxCell id="6hfL-zMeESmWzbewmXy1-22" value="&lt;span style=&quot;font-size: 17px;&quot;&gt;选择博客&lt;/span&gt;" style="rounded=1;whiteSpace=wrap;html=1;" vertex="1" parent="1">
          <mxGeometry x="73.5" y="417" width="107" height="50" as="geometry" />
        </mxCell>
        <mxCell id="6hfL-zMeESmWzbewmXy1-37" style="edgeStyle=orthogonalEdgeStyle;rounded=0;orthogonalLoop=1;jettySize=auto;html=1;exitX=1;exitY=0.5;exitDx=0;exitDy=0;" edge="1" parent="1" source="6hfL-zMeESmWzbewmXy1-24" target="6hfL-zMeESmWzbewmXy1-33">
          <mxGeometry relative="1" as="geometry" />
        </mxCell>
        <mxCell id="6hfL-zMeESmWzbewmXy1-24" value="&lt;span style=&quot;font-size: 17px;&quot;&gt;修改博客&lt;/span&gt;" style="rounded=1;whiteSpace=wrap;html=1;" vertex="1" parent="1">
          <mxGeometry x="72.5" y="510" width="110.5" height="49" as="geometry" />
        </mxCell>
        <mxCell id="6hfL-zMeESmWzbewmXy1-39" style="edgeStyle=orthogonalEdgeStyle;rounded=0;orthogonalLoop=1;jettySize=auto;html=1;exitX=1;exitY=0.5;exitDx=0;exitDy=0;entryX=0;entryY=0.5;entryDx=0;entryDy=0;" edge="1" parent="1" source="6hfL-zMeESmWzbewmXy1-25" target="6hfL-zMeESmWzbewmXy1-36">
          <mxGeometry relative="1" as="geometry" />
        </mxCell>
        <mxCell id="6hfL-zMeESmWzbewmXy1-25" value="&lt;span style=&quot;font-size: 17px;&quot;&gt;创建博客&lt;/span&gt;" style="rounded=1;whiteSpace=wrap;html=1;" vertex="1" parent="1">
          <mxGeometry x="73.5" y="603" width="107" height="49" as="geometry" />
        </mxCell>
        <mxCell id="6hfL-zMeESmWzbewmXy1-38" style="edgeStyle=orthogonalEdgeStyle;rounded=0;orthogonalLoop=1;jettySize=auto;html=1;exitX=1;exitY=0.5;exitDx=0;exitDy=0;entryX=0;entryY=0.5;entryDx=0;entryDy=0;" edge="1" parent="1" source="6hfL-zMeESmWzbewmXy1-33" target="6hfL-zMeESmWzbewmXy1-34">
          <mxGeometry relative="1" as="geometry" />
        </mxCell>
        <mxCell id="6hfL-zMeESmWzbewmXy1-33" value="&lt;span style=&quot;font-size: 17px;&quot;&gt;获取修改后的博客&lt;/span&gt;" style="rounded=1;whiteSpace=wrap;html=1;" vertex="1" parent="1">
          <mxGeometry x="352" y="510" width="107" height="49" as="geometry" />
        </mxCell>
        <mxCell id="6hfL-zMeESmWzbewmXy1-48" style="edgeStyle=orthogonalEdgeStyle;rounded=0;orthogonalLoop=1;jettySize=auto;html=1;exitX=0.5;exitY=1;exitDx=0;exitDy=0;entryX=1;entryY=0.5;entryDx=0;entryDy=0;" edge="1" parent="1" source="6hfL-zMeESmWzbewmXy1-34" target="6hfL-zMeESmWzbewmXy1-46">
          <mxGeometry relative="1" as="geometry" />
        </mxCell>
        <mxCell id="6hfL-zMeESmWzbewmXy1-34" value="&lt;span style=&quot;font-size: 17px;&quot;&gt;保存文章信息&lt;/span&gt;" style="rounded=1;whiteSpace=wrap;html=1;" vertex="1" parent="1">
          <mxGeometry x="600" y="511" width="107" height="47" as="geometry" />
        </mxCell>
        <mxCell id="6hfL-zMeESmWzbewmXy1-41" style="edgeStyle=orthogonalEdgeStyle;rounded=0;orthogonalLoop=1;jettySize=auto;html=1;exitX=1;exitY=0.5;exitDx=0;exitDy=0;entryX=0;entryY=0.5;entryDx=0;entryDy=0;" edge="1" parent="1" source="6hfL-zMeESmWzbewmXy1-36" target="6hfL-zMeESmWzbewmXy1-34">
          <mxGeometry relative="1" as="geometry">
            <Array as="points">
              <mxPoint x="564" y="628" />
              <mxPoint x="564" y="534" />
            </Array>
          </mxGeometry>
        </mxCell>
        <mxCell id="6hfL-zMeESmWzbewmXy1-36" value="&lt;span style=&quot;font-size: 17px;&quot;&gt;获取新创建的博客&lt;/span&gt;" style="rounded=1;whiteSpace=wrap;html=1;" vertex="1" parent="1">
          <mxGeometry x="352" y="603" width="107" height="49" as="geometry" />
        </mxCell>
        <mxCell id="6hfL-zMeESmWzbewmXy1-49" style="edgeStyle=orthogonalEdgeStyle;rounded=0;orthogonalLoop=1;jettySize=auto;html=1;entryX=1;entryY=0.5;entryDx=0;entryDy=0;" edge="1" parent="1" source="6hfL-zMeESmWzbewmXy1-46" target="6hfL-zMeESmWzbewmXy1-47">
          <mxGeometry relative="1" as="geometry" />
        </mxCell>
        <mxCell id="6hfL-zMeESmWzbewmXy1-46" value="&lt;span style=&quot;font-size: 17px;&quot;&gt;返回用户修改成功&lt;/span&gt;" style="rounded=1;whiteSpace=wrap;html=1;" vertex="1" parent="1">
          <mxGeometry x="352" y="683" width="107" height="49" as="geometry" />
        </mxCell>
        <mxCell id="6hfL-zMeESmWzbewmXy1-47" value="" style="ellipse;html=1;shape=endState;fillColor=#000000;strokeColor=#ff0000;" vertex="1" parent="1">
          <mxGeometry x="111" y="692.5" width="30" height="30" as="geometry" />
        </mxCell>
      </root>
    </mxGraphModel>
  </diagram>
</mxfile>
